<svg version="1.1" id="Layer_1" xmlns="http://www.w3.org/2000/svg" xmlns:xlink="http://www.w3.org/1999/xlink" x="0px" y="0px"
	 width="100%" viewBox="0 0 560 448" enable-background="new 0 0 560 448" xml:space="preserve">
<path fill="#000000" opacity="1.000000" stroke="none" 
	d="
M212.680832,239.015594 
	C203.891388,239.206543 195.645966,239.291733 187.401871,237.250626 
	C168.535385,232.579544 153.569794,216.743134 150.822372,197.845108 
	C147.875900,177.577957 157.597153,157.771637 175.376999,148.324493 
	C178.462097,146.685287 179.629578,145.067078 179.045746,141.377365 
	C173.564972,106.740395 193.539764,77.065056 219.157883,65.147133 
	C246.543365,52.406994 279.917908,58.290718 301.044739,80.373184 
	C303.774689,83.226639 306.131317,84.619957 310.441437,83.872231 
	C331.999908,80.132217 353.790009,95.173409 357.609680,116.473763 
	C358.210236,119.822762 359.925568,120.892914 363.389984,121.076843 
	C391.547241,122.571724 415.126587,143.384552 419.056152,171.018112 
	C424.298615,207.884232 396.935699,237.357956 362.930206,238.949738 
	C361.598938,239.012054 360.265045,239.018295 358.932373,239.050888 
	C351.763062,239.226196 351.761719,238.997116 351.586761,232.003632 
	C351.479828,227.729797 353.198273,226.631348 357.174866,226.660141 
	C372.738586,226.772827 386.636932,222.310577 396.555695,209.691727 
	C409.005463,193.852875 411.526611,176.333145 401.886902,158.340881 
	C392.512909,140.844635 377.284851,132.731277 357.329071,133.927429 
	C348.851349,134.435577 347.619873,133.446091 346.576355,124.940956 
	C344.450073,107.610901 335.416443,98.057159 318.968933,95.746521 
	C314.729340,95.150909 310.598267,96.038918 306.720520,97.433472 
	C302.054352,99.111565 299.124969,97.338554 296.408752,93.853142 
	C287.105286,81.915108 274.879517,74.829262 260.090210,71.785866 
	C227.961929,65.174393 194.715942,89.376503 191.126328,122.001442 
	C190.258804,129.886078 190.697357,137.566498 192.729004,145.232635 
	C194.495483,151.898148 193.109467,154.192551 186.691727,156.615555 
	C171.023590,162.531082 162.485153,175.784988 162.620102,190.663742 
	C162.774643,207.703079 174.427246,221.278275 190.557480,225.304993 
	C196.631470,226.821304 202.759537,226.724380 208.922943,226.805374 
	C211.055817,226.833420 214.517899,225.601349 214.913055,228.588531 
	C215.359955,231.966553 217.439072,236.181335 212.680832,239.015594 
z"/>
<path fill="#000000" opacity="1.000000" stroke="none" 
	d="
M389.990784,401.989319 
	C380.694733,412.099670 368.944122,415.765991 356.112335,416.191650 
	C343.805725,416.599854 331.474457,416.321381 319.154572,416.249847 
	C313.617340,416.217712 311.631775,414.338104 311.128265,408.910187 
	C310.959717,407.093140 310.965942,405.247009 311.050964,403.421570 
	C311.360016,396.784698 313.309509,394.842407 319.936981,394.806030 
	C331.424500,394.742981 342.913086,394.852020 354.400330,394.768860 
	C369.639771,394.658539 379.380188,387.038361 382.253418,372.178589 
	C384.623230,359.922424 383.314697,348.290833 373.601105,338.967834 
	C368.752930,334.314606 362.938538,332.298035 356.384430,332.249786 
	C344.231201,332.160278 332.077026,332.218964 319.923401,332.167450 
	C313.291107,332.139343 311.373596,330.284607 311.058044,323.628845 
	C310.963745,321.639282 311.053314,319.633759 311.175262,317.642670 
	C311.443390,313.264679 313.778931,310.884399 318.207153,310.928894 
	C333.507294,311.082581 348.910614,309.587616 364.082428,311.873901 
	C386.385010,315.234711 401.335510,332.685394 404.284821,353.823456 
	C406.275452,368.090637 404.449005,381.644470 396.608093,394.078461 
	C394.806183,396.935913 392.476624,399.280334 389.990784,401.989319 
z"/>
<path fill="#000000" opacity="1.000000" stroke="none" 
	d="
M187.715546,397.222778 
	C164.270157,366.046631 179.440887,320.913361 216.054443,311.952148 
	C223.676605,310.086609 226.188461,312.060699 226.245102,319.961090 
	C226.319351,330.318390 226.274368,330.206848 216.785828,334.035431 
	C206.860291,338.040344 201.421478,345.818420 198.961060,355.989532 
	C195.875290,368.745819 200.830673,383.094971 210.884048,390.363770 
	C213.622116,392.343475 216.617111,393.815735 219.877090,394.582581 
	C224.592865,395.691925 226.464767,398.687561 226.247177,403.308929 
	C226.215851,403.973969 226.244553,404.641815 226.245682,405.308380 
	C226.264465,416.280548 223.573807,418.287628 212.970337,414.967224 
	C202.811203,411.785980 194.582581,405.763489 187.715546,397.222778 
z"/>
<path fill="#000000" opacity="1.000000" stroke="none" 
	d="
M281.350922,378.093567 
	C275.641113,397.749268 263.291443,410.336517 243.906784,415.701141 
	C236.400635,417.778442 233.757034,415.524017 233.705139,407.743347 
	C233.692932,405.913147 233.754761,404.081604 233.706451,402.252686 
	C233.598114,398.151764 235.609879,395.867249 239.492538,394.670624 
	C253.691864,390.294464 261.687775,378.901703 261.629761,363.397186 
	C261.575195,348.814209 253.607300,337.355164 240.193802,333.129730 
	C235.448227,331.634827 233.789917,328.848724 233.607819,323.985107 
	C233.098953,310.392609 236.138657,309.124146 248.554184,313.496063 
	C274.472321,322.622559 288.124023,349.549438 281.350922,378.093567 
z"/>
<path fill="#000000" opacity="1.000000" stroke="none" 
	d="
M96.560715,333.604126 
	C82.437683,339.812805 77.811996,351.138733 78.161469,365.270721 
	C78.498032,378.880829 83.598701,389.503510 97.064331,394.653656 
	C100.663429,396.030212 102.327293,398.496063 102.235329,402.273285 
	C102.211029,403.271271 102.236099,404.270386 102.235382,405.268982 
	C102.227097,416.773804 99.100517,418.867065 88.268333,414.620605 
	C69.743744,407.358612 57.191162,388.830994 56.594662,368.877594 
	C56.148479,353.952515 58.658573,340.115082 68.265839,328.156067 
	C75.102112,319.646332 83.839531,314.297241 94.451187,311.910980 
	C96.715881,311.401703 98.771538,311.658203 100.432877,313.401855 
	C104.490875,317.660797 102.191788,330.690155 96.560715,333.604126 
z"/>
<path fill="#000000" opacity="1.000000" stroke="none" 
	d="
M453.004669,416.294678 
	C448.347870,416.277435 444.184967,416.378235 440.033234,416.207306 
	C436.146149,416.047241 433.763947,413.926910 433.701691,409.943970 
	C433.491699,396.512970 432.460236,394.439423 447.622406,394.675781 
	C466.413239,394.968781 485.211945,394.742859 504.007263,394.760986 
	C512.230347,394.768921 513.357544,395.882690 513.378174,403.830078 
	C513.410522,416.298615 513.410461,416.298981 500.907532,416.298187 
	C485.106171,416.297180 469.304779,416.295471 453.004669,416.294678 
z"/>
<path fill="#000000" opacity="1.000000" stroke="none" 
	d="
M441.420959,310.900330 
	C462.697662,310.882721 483.518555,310.864594 504.339478,310.883240 
	C512.249146,310.890350 513.378845,312.040924 513.382202,319.776886 
	C513.387634,332.252838 513.387634,332.251373 500.914612,332.244781 
	C481.426208,332.234436 461.937744,332.246796 442.449402,332.206573 
	C435.281433,332.191772 433.721405,330.560852 433.648834,323.317383 
	C433.635468,321.984985 433.633636,320.652191 433.648651,319.319824 
	C433.719666,313.022888 434.584137,312.033264 441.420959,310.900330 
z"/>
<path fill="#000000" opacity="1.000000" stroke="none" 
	d="
M443.208344,352.699036 
	C462.009583,352.699463 480.337830,352.677948 498.665985,352.713043 
	C505.896545,352.726868 507.336853,354.256592 507.349548,361.577118 
	C507.371582,374.274841 507.371582,374.271301 494.441925,374.267883 
	C477.113434,374.263275 459.784882,374.286102 442.456451,374.253357 
	C435.289886,374.239807 433.700928,372.590942 433.642944,365.395294 
	C433.633514,364.229004 433.636627,363.062592 433.644501,361.896271 
	C433.694733,354.464111 435.213623,352.928711 443.208344,352.699036 
z"/>
<path fill="#000000" opacity="1.000000" stroke="none" 
	d="
M234.994232,180.964325 
	C251.036087,171.411118 267.278534,171.327698 283.408691,179.145111 
	C293.824493,184.193069 294.057800,193.855240 283.859161,199.238968 
	C268.440765,207.378189 252.486816,207.294846 237.078598,199.052444 
	C228.799896,194.623856 228.260986,188.029312 234.994232,180.964325 
z"/>
<path fill="#000000" opacity="1.000000" stroke="none" 
	d="
M307.601105,133.036804 
	C313.258453,134.230316 318.386322,135.630875 322.854706,138.762955 
	C330.091614,143.835571 330.467621,151.255508 323.345764,156.421494 
	C313.263916,163.734589 301.623840,164.186676 289.844482,162.806305 
	C284.053101,162.127640 278.375458,160.577972 273.534393,157.020248 
	C265.520966,151.131073 265.769897,143.255844 274.321594,138.204590 
	C284.533783,132.172531 295.694458,131.371674 307.601105,133.036804 
z"/>
<path fill="#000000" opacity="1.000000" stroke="none" 
	d="
M141.263519,377.674011 
	C144.388016,377.695709 147.072601,377.518250 149.712753,377.783386 
	C154.214554,378.235382 156.392502,381.377472 154.812576,385.500336 
	C148.136856,402.920959 135.469696,413.349365 117.248787,417.094269 
	C115.763939,417.399445 114.198265,417.405975 112.901245,416.483643 
	C107.756569,412.825104 110.153282,407.368530 109.767860,402.621857 
	C109.489098,399.188782 111.362221,396.727509 114.699387,396.060486 
	C123.182777,394.364960 129.036652,389.457794 132.999329,381.967072 
	C134.641907,378.862061 137.266312,377.403748 141.263519,377.674011 
z"/>
<path fill="#000000" opacity="1.000000" stroke="none" 
	d="
M131.523071,343.513947 
	C127.869957,337.750122 123.009537,334.191437 116.700363,332.833710 
	C111.637543,331.744171 109.640129,328.807770 109.619049,323.656250 
	C109.566223,310.742920 111.880310,308.882568 124.257912,313.046234 
	C138.607117,317.873230 148.832687,327.181885 154.291245,341.455231 
	C156.471024,347.154999 154.538040,350.139435 148.539032,350.367035 
	C146.548996,350.442566 144.526276,350.172974 142.566467,350.428772 
	C137.112015,351.140656 133.646759,348.794464 131.523071,343.513947 
z"/>
<path fill="#000000" opacity="1.000000" stroke="none" 
	d="
M244.949677,212.120209 
	C257.280579,217.286896 268.960968,216.739792 280.126770,210.010925 
	C283.006165,208.275742 285.595856,207.471893 288.289154,209.821274 
	C291.063263,212.241119 291.868805,215.404358 290.659546,218.863953 
	C289.385437,222.509186 286.662811,225.003464 283.227142,226.530930 
	C268.656097,233.009048 253.916107,233.090164 239.196167,227.125412 
	C235.286179,225.541031 231.973465,222.987991 230.753555,218.559921 
	C229.781723,215.032425 230.370529,212.028137 233.445831,209.692139 
	C236.362335,207.476791 238.962036,208.178741 241.587067,210.219086 
	C242.494766,210.924622 243.594711,211.382812 244.949677,212.120209 
z"/>
<path fill="#000000" opacity="1.000000" stroke="none" 
	d="
M282.982574,253.216705 
	C268.458893,259.457214 254.180161,259.302673 239.892395,253.890747 
	C235.733093,252.315292 232.232529,249.739288 230.799850,245.224167 
	C229.690140,241.726852 230.378403,238.625320 233.359192,236.262756 
	C236.200119,234.011063 238.659256,235.024200 241.547577,236.676331 
	C253.747803,243.655075 266.288971,243.723480 278.719666,237.328964 
	C284.515686,234.347397 287.003693,234.158401 289.582855,237.714478 
	C292.226074,241.358841 291.575378,246.321518 287.797455,249.901581 
	C286.485504,251.144806 284.831635,252.027222 282.982574,253.216705 
z"/>
<path fill="#000000" opacity="1.000000" stroke="none" 
	d="
M322.634003,193.438751 
	C329.258728,196.793488 330.373383,203.792847 324.976624,208.571014 
	C318.113220,214.647766 309.425568,215.658768 300.706177,216.214600 
	C300.229980,216.244965 299.670746,216.135910 299.263733,215.897690 
	C296.841766,214.480057 297.552856,212.007233 297.758942,210.043121 
	C298.085144,206.934677 295.822357,201.708221 299.394745,201.085037 
	C307.537689,199.664520 314.741760,196.161224 322.634003,193.438751 
z"/>
<path fill="#000000" opacity="1.000000" stroke="none" 
	d="
M297.658569,233.096710 
	C297.040771,228.417938 298.763824,226.748672 303.099091,226.496048 
	C308.083527,226.205597 312.910706,224.646072 317.123138,221.782928 
	C320.203461,219.689285 323.215942,218.915634 326.091980,221.837616 
	C328.867859,224.657837 328.939850,228.040955 327.440643,231.528336 
	C325.892029,235.130661 322.811920,237.125687 319.461884,238.675079 
	C313.811890,241.288208 307.723999,242.151657 301.597656,242.777100 
	C298.833832,243.059250 297.588623,241.802780 297.676666,239.048355 
	C297.735016,237.223145 297.668854,235.393951 297.658569,233.096710 
z"/>
<path fill="#000000" opacity="1.000000" stroke="none" 
	d="
M328.257935,175.708435 
	C327.411957,180.222305 324.745178,182.821991 321.218445,184.695831 
	C315.059753,187.968079 308.375000,189.172379 301.508911,189.623413 
	C300.851593,189.666595 299.966187,189.836792 299.556976,189.499191 
	C295.591156,186.227264 298.433167,181.792740 297.739990,177.936523 
	C297.358551,175.814301 298.018311,173.941589 300.757416,173.757050 
	C307.370361,173.311523 313.347931,171.139771 319.031860,167.675461 
	C323.599365,164.891602 327.866882,168.567001 328.257935,175.708435 
z"/>
</svg>