<svg version="1.1" id="Layer_1" xmlns="http://www.w3.org/2000/svg" xmlns:xlink="http://www.w3.org/1999/xlink" x="0px" y="0px"
	 width="100%" viewBox="0 0 352 256" enable-background="new 0 0 352 256" xml:space="preserve">
<path fill="#64FFDA" opacity="1.000000" stroke="none"
	d="
M79.323883,204.718719 
	C88.097824,208.804214 97.090782,209.031647 106.105881,208.636108 
	C110.099991,208.460876 112.026421,209.435394 111.476891,213.841797 
	C111.033409,217.397766 112.763016,221.341370 106.185501,221.368698 
	C91.921600,221.427963 78.344421,220.017380 66.230042,211.440689 
	C38.206608,191.600800 40.326019,147.337280 70.404213,130.860703 
	C74.484329,128.625656 75.538193,126.545975 74.887627,121.996742 
	C69.163612,81.971039 97.446770,45.071690 137.482758,40.905647 
	C160.428146,38.518005 180.636536,45.426029 196.892349,62.248550 
	C199.786011,65.243088 202.361435,66.541153 206.743683,65.847374 
	C228.836014,62.349827 249.823181,77.626854 253.543839,98.285698 
	C254.198013,101.917992 256.103943,102.918991 259.698700,103.086197 
	C287.302979,104.370155 311.033508,125.304245 315.041901,152.753906 
	C320.462616,189.874969 292.973419,219.252441 259.265076,220.975204 
	C257.767670,221.051743 256.266632,221.057938 254.767410,221.099747 
	C247.727005,221.296112 247.710876,221.092834 247.597610,213.923645 
	C247.537003,210.086807 248.726028,208.658295 252.723114,208.626602 
	C266.806824,208.514923 279.720612,205.155151 289.999115,194.597321 
	C303.602325,180.624420 307.176178,159.719437 298.751068,141.911194 
	C290.555145,124.587357 272.311707,114.201088 253.082550,115.911423 
	C245.123856,116.619316 243.501007,115.283020 242.582687,107.265678 
	C240.591476,89.881386 231.787140,80.426384 215.231812,77.817314 
	C211.151245,77.174225 207.210831,77.976639 203.483459,79.316582 
	C198.631241,81.060883 195.290268,79.762299 192.232620,75.769096 
	C183.250244,64.038361 171.290451,57.041374 156.869232,53.995155 
	C119.816986,46.168552 84.233910,77.030708 86.864174,114.711639 
	C87.178932,119.220848 87.805550,123.623131 88.891266,128.013107 
	C90.345444,133.892899 88.970848,136.379395 83.407684,138.458817 
	C68.073059,144.190643 59.489220,155.367599 58.731445,171.512756 
	C58.156059,183.772018 64.649216,197.566391 79.323883,204.718719 
z"/>
<path fill="#64FFDA" opacity="1.000000" stroke="none"
	d="
M179.542603,181.724167 
	C165.393021,188.449615 151.301697,188.695312 137.141922,183.293503 
	C131.550385,181.160385 126.128212,177.909119 126.280128,171.077621 
	C126.419533,164.808594 131.539444,161.697571 136.779556,159.616196 
	C150.910339,154.003372 165.082626,153.928909 178.828247,160.741089 
	C189.771088,166.164215 190.056763,174.757401 179.542603,181.724167 
z"/>
<path fill="#64FFDA" opacity="1.000000" stroke="none"
	d="
M181.101425,115.760605 
	C192.316406,113.300217 202.972244,113.553307 213.305313,117.811424 
	C215.734985,118.812660 218.125061,120.148186 220.179474,121.776421 
	C225.923828,126.329140 225.887589,133.304260 220.200546,137.992142 
	C215.151840,142.153824 209.068649,143.855713 202.756866,144.758179 
	C193.232819,146.119919 183.855606,145.540939 174.813889,141.969269 
	C172.173904,140.926407 169.727783,139.510193 167.640686,137.535858 
	C162.161270,132.352493 162.451050,125.953995 168.499817,121.373695 
	C172.127182,118.626938 176.344711,117.060089 181.101425,115.760605 
z"/>
<path fill="#64FFDA" opacity="1.000000" stroke="none"
	d="
M146.762344,212.538452 
	C141.551437,211.646927 136.889664,210.452545 132.712326,207.893845 
	C129.319321,205.815598 126.823936,203.026123 126.355034,198.859650 
	C126.009972,195.793411 127.036469,193.333527 129.602737,191.541183 
	C132.108994,189.790802 134.340012,190.179642 136.948212,191.711594 
	C149.941803,199.343536 163.144470,199.284409 176.188339,191.901672 
	C179.149567,190.225647 181.682236,189.544693 184.364105,191.805298 
	C187.044357,194.064499 187.744919,197.103516 186.841415,200.393661 
	C185.697632,204.558899 182.616943,207.064468 178.864792,208.777145 
	C168.724670,213.405655 158.104233,214.267410 146.762344,212.538452 
z"/>
<path fill="#64FFDA" opacity="1.000000" stroke="none"
	d="
M154.221924,223.693909 
	C162.512650,224.071014 169.915298,222.704239 176.521973,218.210190 
	C178.965912,216.547745 181.473465,216.161194 183.922531,218.009384 
	C186.521271,219.970520 187.625763,222.694778 187.084229,225.921432 
	C186.393738,230.035675 183.798950,232.864655 180.210175,234.583038 
	C164.710373,242.004578 149.072235,241.671112 133.516769,234.806519 
	C129.917038,233.217972 127.292343,230.350693 126.394020,226.297028 
	C125.627991,222.840347 126.812309,220.052750 129.603058,217.993332 
	C132.284607,216.014526 134.799713,216.611786 137.358719,218.517654 
	C142.201752,222.124573 147.898254,223.225922 154.221924,223.693909 
z"/>
<path fill="#64FFDA" opacity="1.000000" stroke="none"
	d="
M193.662048,192.905014 
	C193.658875,183.271027 193.666595,183.308838 202.697495,181.462753 
	C206.629944,180.658905 210.248032,179.035446 213.645050,176.878586 
	C218.846390,173.576080 224.064407,176.335327 224.343964,182.509232 
	C224.524063,186.486847 222.869141,189.646332 219.637009,191.841858 
	C212.967758,196.372147 205.315491,197.682602 197.480240,198.270447 
	C193.798920,198.546646 193.582855,196.068756 193.662048,192.905014 
z"/>
<path fill="#64FFDA" opacity="1.000000" stroke="none"
	d="
M205.871765,154.028229 
	C208.803223,152.709702 211.446564,151.671570 213.885620,150.276276 
	C218.984009,147.359711 224.023560,149.946472 224.307281,155.819809 
	C224.566132,161.178650 221.491318,164.516190 217.137283,166.838684 
	C211.002670,170.110977 204.262192,171.162155 197.438492,171.756165 
	C196.639893,171.825699 195.377792,171.853165 195.065262,171.396881 
	C192.304214,167.366043 194.023666,162.803574 193.805664,158.468582 
	C193.678726,155.944626 195.796204,155.860764 197.652863,155.575394 
	C200.276810,155.172073 202.879395,154.629791 205.871765,154.028229 
z"/>
<path fill="#64FFDA" opacity="1.000000" stroke="none"
	d="
M221.620178,203.317337 
	C225.697250,209.005951 225.038651,214.507019 219.736603,218.287079 
	C212.852707,223.194916 204.704895,224.093170 196.578247,224.851181 
	C196.257843,224.881088 195.826004,224.880112 195.610565,224.698441 
	C191.709747,221.409424 194.337799,217.006500 193.728882,213.150818 
	C193.407257,211.114319 193.771652,209.072845 196.565781,208.837143 
	C203.298981,208.269135 209.564484,206.324936 215.236420,202.561844 
	C217.330887,201.172241 219.364517,201.887070 221.620178,203.317337 
z"/>
</svg>
